<?xml version="1.0" encoding="UTF-8" standalone="no"?>
<svg
   viewBox="0 0 18 18"
   version="1.1"
   id="svg8"
   sodipodi:docname="cil-info.svg"
   width="18"
   height="18"
   inkscape:version="1.2.2 (732a01da63, 2022-12-09)"
   inkscape:export-filename="cil-info.png"
   inkscape:export-xdpi="85.333336"
   inkscape:export-ydpi="85.333336"
   xmlns:inkscape="http://www.inkscape.org/namespaces/inkscape"
   xmlns:sodipodi="http://sodipodi.sourceforge.net/DTD/sodipodi-0.dtd"
   xmlns="http://www.w3.org/2000/svg"
   xmlns:svg="http://www.w3.org/2000/svg">
  <defs
     id="defs12" />
  <sodipodi:namedview
     id="namedview10"
     pagecolor="#505050"
     bordercolor="#eeeeee"
     borderopacity="1"
     inkscape:showpageshadow="0"
     inkscape:pageopacity="0"
     inkscape:pagecheckerboard="0"
     inkscape:deskcolor="#505050"
     showgrid="false"
     inkscape:zoom="10.429825"
     inkscape:cx="-3.9310343"
     inkscape:cy="15.867956"
     inkscape:window-width="1440"
     inkscape:window-height="890"
     inkscape:window-x="-6"
     inkscape:window-y="-6"
     inkscape:window-maximized="1"
     inkscape:current-layer="svg8" />
  <rect
     width="1.1641333"
     height="1.1641333"
     x="9"
     y="3.6665993"
     fill="var(--ci-primary-color, currentColor)"
     class="ci-primary"
     id="rect2"
     style="fill:#ffffff;fill-opacity:1;stroke-width:0.0333333"
     inkscape:export-filename="cil-info.png"
     inkscape:export-xdpi="96"
     inkscape:export-ydpi="96" />
  <path
     fill="var(--ci-primary-color, currentColor)"
     d="M 1,17 H 17 V 1 H 1 Z M 2.066667,2.066667 H 15.933333 V 15.933333 H 2.066667 Z"
     class="ci-primary"
     id="path4"
     style="fill:#ffffff;fill-opacity:1;stroke-width:0.0333333" />
  <path
     fill="var(--ci-primary-color, currentColor)"
     d="M 9.9771001,12.4344 A 0.6041,0.6041 0 0 1 9.4571,12.733267 0.60203333,0.60203333 0 0 1 8.879533,11.961367 l 1.189,-4.042567 A 1.6525667,1.6525667 0 0 0 6.956667,6.819067 L 6.566067,7.7602 7.5513,8.169067 7.9419,7.2279 a 0.5859,0.5859 0 0 1 1.103333,0.39 l -1.189,4.042567 A 1.6687,1.6687 0 0 0 9.456967,13.8 1.6742333,1.6742333 0 0 0 10.898633,12.971567 L 11.401967,12.1078 10.480433,11.570633 Z"
     class="ci-primary"
     id="path6"
     style="fill:#ffffff;fill-opacity:1;stroke-width:0.0333333" />
</svg>
